<mxfile host="app.diagrams.net" agent="Mozilla/5.0 (Windows NT 10.0; Win64; x64) AppleWebKit/537.36 (KHTML, like Gecko) Chrome/136.0.0.0 Safari/537.36" version="27.0.5">
  <diagram name="第 1 页" id="ziF3EnpFZsz_gvLkC9It">
    <mxGraphModel dx="2015" dy="619" grid="1" gridSize="10" guides="1" tooltips="1" connect="1" arrows="1" fold="1" page="1" pageScale="1" pageWidth="827" pageHeight="1169" math="0" shadow="0">
      <root>
        <mxCell id="0" />
        <mxCell id="1" parent="0" />
        <mxCell id="lhJMH0FhBBp582m9ibpw-1" value="订单支付" style="html=1;verticalAlign=bottom;startArrow=circle;startFill=1;endArrow=open;startSize=6;endSize=8;curved=0;rounded=0;" edge="1" parent="1">
          <mxGeometry width="80" relative="1" as="geometry">
            <mxPoint x="-10" y="200" as="sourcePoint" />
            <mxPoint x="150" y="200" as="targetPoint" />
            <mxPoint as="offset" />
          </mxGeometry>
        </mxCell>
        <mxCell id="lhJMH0FhBBp582m9ibpw-8" style="edgeStyle=orthogonalEdgeStyle;rounded=0;orthogonalLoop=1;jettySize=auto;html=1;" edge="1" parent="1" source="lhJMH0FhBBp582m9ibpw-7">
          <mxGeometry relative="1" as="geometry">
            <mxPoint x="205" y="280" as="targetPoint" />
          </mxGeometry>
        </mxCell>
        <mxCell id="lhJMH0FhBBp582m9ibpw-9" value="否" style="edgeLabel;html=1;align=center;verticalAlign=middle;resizable=0;points=[];" vertex="1" connectable="0" parent="lhJMH0FhBBp582m9ibpw-8">
          <mxGeometry x="0.2908" y="2" relative="1" as="geometry">
            <mxPoint x="-3" y="-12" as="offset" />
          </mxGeometry>
        </mxCell>
        <mxCell id="lhJMH0FhBBp582m9ibpw-23" style="edgeStyle=orthogonalEdgeStyle;rounded=0;orthogonalLoop=1;jettySize=auto;html=1;" edge="1" parent="1" source="lhJMH0FhBBp582m9ibpw-7">
          <mxGeometry relative="1" as="geometry">
            <mxPoint x="340" y="200" as="targetPoint" />
            <Array as="points">
              <mxPoint x="320" y="200" />
              <mxPoint x="320" y="200" />
            </Array>
          </mxGeometry>
        </mxCell>
        <mxCell id="lhJMH0FhBBp582m9ibpw-24" value="是" style="edgeLabel;html=1;align=center;verticalAlign=middle;resizable=0;points=[];" vertex="1" connectable="0" parent="lhJMH0FhBBp582m9ibpw-23">
          <mxGeometry x="0.4422" y="-1" relative="1" as="geometry">
            <mxPoint x="-18" y="-1" as="offset" />
          </mxGeometry>
        </mxCell>
        <mxCell id="lhJMH0FhBBp582m9ibpw-7" value="进入支付界面" style="rhombus;whiteSpace=wrap;html=1;" vertex="1" parent="1">
          <mxGeometry x="150" y="170" width="110" height="60" as="geometry" />
        </mxCell>
        <mxCell id="lhJMH0FhBBp582m9ibpw-13" style="edgeStyle=orthogonalEdgeStyle;rounded=0;orthogonalLoop=1;jettySize=auto;html=1;" edge="1" parent="1">
          <mxGeometry relative="1" as="geometry">
            <mxPoint x="-1" y="200" as="targetPoint" />
            <mxPoint x="149" y="300" as="sourcePoint" />
          </mxGeometry>
        </mxCell>
        <mxCell id="lhJMH0FhBBp582m9ibpw-14" value="重新支付" style="edgeLabel;html=1;align=center;verticalAlign=middle;resizable=0;points=[];" vertex="1" connectable="0" parent="lhJMH0FhBBp582m9ibpw-13">
          <mxGeometry x="-0.365" y="-1" relative="1" as="geometry">
            <mxPoint as="offset" />
          </mxGeometry>
        </mxCell>
        <mxCell id="lhJMH0FhBBp582m9ibpw-18" style="edgeStyle=orthogonalEdgeStyle;rounded=0;orthogonalLoop=1;jettySize=auto;html=1;entryX=0.5;entryY=0;entryDx=0;entryDy=0;" edge="1" parent="1" source="lhJMH0FhBBp582m9ibpw-10" target="lhJMH0FhBBp582m9ibpw-17">
          <mxGeometry relative="1" as="geometry" />
        </mxCell>
        <mxCell id="lhJMH0FhBBp582m9ibpw-10" value="待支付" style="rounded=1;whiteSpace=wrap;html=1;" vertex="1" parent="1">
          <mxGeometry x="150" y="280" width="110" height="40" as="geometry" />
        </mxCell>
        <mxCell id="lhJMH0FhBBp582m9ibpw-19" style="edgeStyle=orthogonalEdgeStyle;rounded=0;orthogonalLoop=1;jettySize=auto;html=1;entryX=0.5;entryY=0;entryDx=0;entryDy=0;" edge="1" parent="1" source="lhJMH0FhBBp582m9ibpw-17" target="lhJMH0FhBBp582m9ibpw-20">
          <mxGeometry relative="1" as="geometry">
            <mxPoint x="205" y="459.9999999999999" as="targetPoint" />
            <Array as="points" />
          </mxGeometry>
        </mxCell>
        <mxCell id="lhJMH0FhBBp582m9ibpw-22" value="取消订单" style="edgeLabel;html=1;align=center;verticalAlign=middle;resizable=0;points=[];" vertex="1" connectable="0" parent="lhJMH0FhBBp582m9ibpw-19">
          <mxGeometry x="-0.1901" y="2" relative="1" as="geometry">
            <mxPoint x="-2" y="12" as="offset" />
          </mxGeometry>
        </mxCell>
        <mxCell id="lhJMH0FhBBp582m9ibpw-17" value="等待时长超出10分钟" style="rhombus;whiteSpace=wrap;html=1;" vertex="1" parent="1">
          <mxGeometry x="130" y="350" width="150" height="70" as="geometry" />
        </mxCell>
        <mxCell id="lhJMH0FhBBp582m9ibpw-20" value="" style="ellipse;html=1;shape=endState;fillColor=#000000;strokeColor=#ff0000;" vertex="1" parent="1">
          <mxGeometry x="190" y="490" width="30" height="30" as="geometry" />
        </mxCell>
        <mxCell id="lhJMH0FhBBp582m9ibpw-28" style="edgeStyle=orthogonalEdgeStyle;rounded=0;orthogonalLoop=1;jettySize=auto;html=1;" edge="1" parent="1" source="lhJMH0FhBBp582m9ibpw-26">
          <mxGeometry relative="1" as="geometry">
            <mxPoint x="530" y="200" as="targetPoint" />
          </mxGeometry>
        </mxCell>
        <mxCell id="lhJMH0FhBBp582m9ibpw-29" value="是" style="edgeLabel;html=1;align=center;verticalAlign=middle;resizable=0;points=[];" vertex="1" connectable="0" parent="lhJMH0FhBBp582m9ibpw-28">
          <mxGeometry x="0.119" y="4" relative="1" as="geometry">
            <mxPoint x="-13" y="4" as="offset" />
          </mxGeometry>
        </mxCell>
        <mxCell id="lhJMH0FhBBp582m9ibpw-37" style="edgeStyle=orthogonalEdgeStyle;rounded=0;orthogonalLoop=1;jettySize=auto;html=1;entryX=1;entryY=0.5;entryDx=0;entryDy=0;" edge="1" parent="1" source="lhJMH0FhBBp582m9ibpw-26" target="lhJMH0FhBBp582m9ibpw-10">
          <mxGeometry relative="1" as="geometry">
            <Array as="points">
              <mxPoint x="405" y="300" />
            </Array>
          </mxGeometry>
        </mxCell>
        <mxCell id="lhJMH0FhBBp582m9ibpw-63" value="否" style="edgeLabel;html=1;align=center;verticalAlign=middle;resizable=0;points=[];" vertex="1" connectable="0" parent="lhJMH0FhBBp582m9ibpw-37">
          <mxGeometry x="-0.7891" y="1" relative="1" as="geometry">
            <mxPoint x="-1" y="1" as="offset" />
          </mxGeometry>
        </mxCell>
        <mxCell id="lhJMH0FhBBp582m9ibpw-26" value="是否支付" style="rhombus;whiteSpace=wrap;html=1;" vertex="1" parent="1">
          <mxGeometry x="340" y="170" width="130" height="60" as="geometry" />
        </mxCell>
        <mxCell id="lhJMH0FhBBp582m9ibpw-32" style="edgeStyle=orthogonalEdgeStyle;rounded=0;orthogonalLoop=1;jettySize=auto;html=1;" edge="1" parent="1" source="lhJMH0FhBBp582m9ibpw-31">
          <mxGeometry relative="1" as="geometry">
            <mxPoint x="595" y="279.9999999999999" as="targetPoint" />
          </mxGeometry>
        </mxCell>
        <mxCell id="lhJMH0FhBBp582m9ibpw-33" value="否" style="edgeLabel;html=1;align=center;verticalAlign=middle;resizable=0;points=[];" vertex="1" connectable="0" parent="lhJMH0FhBBp582m9ibpw-32">
          <mxGeometry x="-0.011" y="-6" relative="1" as="geometry">
            <mxPoint y="-5" as="offset" />
          </mxGeometry>
        </mxCell>
        <mxCell id="lhJMH0FhBBp582m9ibpw-40" value="" style="edgeStyle=orthogonalEdgeStyle;rounded=0;orthogonalLoop=1;jettySize=auto;html=1;entryX=0;entryY=0.5;entryDx=0;entryDy=0;" edge="1" parent="1" source="lhJMH0FhBBp582m9ibpw-31" target="lhJMH0FhBBp582m9ibpw-41">
          <mxGeometry relative="1" as="geometry">
            <mxPoint x="770" y="200" as="targetPoint" />
            <Array as="points" />
          </mxGeometry>
        </mxCell>
        <mxCell id="lhJMH0FhBBp582m9ibpw-43" value="是" style="edgeLabel;html=1;align=center;verticalAlign=middle;resizable=0;points=[];" vertex="1" connectable="0" parent="lhJMH0FhBBp582m9ibpw-40">
          <mxGeometry x="0.0724" y="-1" relative="1" as="geometry">
            <mxPoint as="offset" />
          </mxGeometry>
        </mxCell>
        <mxCell id="lhJMH0FhBBp582m9ibpw-31" value="是否发货" style="rhombus;whiteSpace=wrap;html=1;" vertex="1" parent="1">
          <mxGeometry x="530" y="170" width="130" height="60" as="geometry" />
        </mxCell>
        <mxCell id="lhJMH0FhBBp582m9ibpw-67" value="" style="edgeStyle=orthogonalEdgeStyle;rounded=0;orthogonalLoop=1;jettySize=auto;html=1;" edge="1" parent="1" source="lhJMH0FhBBp582m9ibpw-34" target="lhJMH0FhBBp582m9ibpw-64">
          <mxGeometry relative="1" as="geometry" />
        </mxCell>
        <mxCell id="lhJMH0FhBBp582m9ibpw-34" value="待发货" style="rounded=1;whiteSpace=wrap;html=1;" vertex="1" parent="1">
          <mxGeometry x="540" y="280" width="110" height="40" as="geometry" />
        </mxCell>
        <mxCell id="lhJMH0FhBBp582m9ibpw-44" style="edgeStyle=orthogonalEdgeStyle;rounded=0;orthogonalLoop=1;jettySize=auto;html=1;exitX=1;exitY=0.5;exitDx=0;exitDy=0;entryX=0;entryY=0.5;entryDx=0;entryDy=0;" edge="1" parent="1" source="lhJMH0FhBBp582m9ibpw-41" target="lhJMH0FhBBp582m9ibpw-45">
          <mxGeometry relative="1" as="geometry">
            <mxPoint x="890" y="200.16666666666674" as="targetPoint" />
            <Array as="points" />
          </mxGeometry>
        </mxCell>
        <mxCell id="lhJMH0FhBBp582m9ibpw-47" style="edgeStyle=orthogonalEdgeStyle;rounded=0;orthogonalLoop=1;jettySize=auto;html=1;" edge="1" parent="1" source="lhJMH0FhBBp582m9ibpw-41">
          <mxGeometry relative="1" as="geometry">
            <mxPoint x="785" y="280" as="targetPoint" />
          </mxGeometry>
        </mxCell>
        <mxCell id="lhJMH0FhBBp582m9ibpw-62" value="否" style="edgeLabel;html=1;align=center;verticalAlign=middle;resizable=0;points=[];" vertex="1" connectable="0" parent="lhJMH0FhBBp582m9ibpw-47">
          <mxGeometry x="-0.0694" y="-1" relative="1" as="geometry">
            <mxPoint x="1" as="offset" />
          </mxGeometry>
        </mxCell>
        <mxCell id="lhJMH0FhBBp582m9ibpw-41" value="是否收货" style="rhombus;whiteSpace=wrap;html=1;" vertex="1" parent="1">
          <mxGeometry x="720" y="170" width="130" height="60" as="geometry" />
        </mxCell>
        <mxCell id="lhJMH0FhBBp582m9ibpw-45" value="" style="ellipse;html=1;shape=endState;fillColor=#000000;strokeColor=#ff0000;" vertex="1" parent="1">
          <mxGeometry x="930" y="185" width="30" height="30" as="geometry" />
        </mxCell>
        <mxCell id="lhJMH0FhBBp582m9ibpw-46" value="订单完成" style="text;html=1;align=center;verticalAlign=middle;resizable=0;points=[];autosize=1;strokeColor=none;fillColor=none;" vertex="1" parent="1">
          <mxGeometry x="850" y="178" width="70" height="30" as="geometry" />
        </mxCell>
        <mxCell id="lhJMH0FhBBp582m9ibpw-50" style="edgeStyle=orthogonalEdgeStyle;rounded=0;orthogonalLoop=1;jettySize=auto;html=1;" edge="1" parent="1" source="lhJMH0FhBBp582m9ibpw-49">
          <mxGeometry relative="1" as="geometry">
            <mxPoint x="785" y="360" as="targetPoint" />
          </mxGeometry>
        </mxCell>
        <mxCell id="lhJMH0FhBBp582m9ibpw-49" value="待收货" style="rounded=1;whiteSpace=wrap;html=1;" vertex="1" parent="1">
          <mxGeometry x="730" y="280" width="110" height="40" as="geometry" />
        </mxCell>
        <mxCell id="lhJMH0FhBBp582m9ibpw-55" style="edgeStyle=orthogonalEdgeStyle;rounded=0;orthogonalLoop=1;jettySize=auto;html=1;entryX=0;entryY=0.5;entryDx=0;entryDy=0;" edge="1" parent="1" source="lhJMH0FhBBp582m9ibpw-52" target="lhJMH0FhBBp582m9ibpw-49">
          <mxGeometry relative="1" as="geometry">
            <Array as="points">
              <mxPoint x="690" y="390" />
              <mxPoint x="690" y="300" />
            </Array>
          </mxGeometry>
        </mxCell>
        <mxCell id="lhJMH0FhBBp582m9ibpw-56" value="否" style="edgeLabel;html=1;align=center;verticalAlign=middle;resizable=0;points=[];" vertex="1" connectable="0" parent="lhJMH0FhBBp582m9ibpw-55">
          <mxGeometry x="-0.2578" y="-2" relative="1" as="geometry">
            <mxPoint x="-3" as="offset" />
          </mxGeometry>
        </mxCell>
        <mxCell id="lhJMH0FhBBp582m9ibpw-52" value="等待时长是否超过7天" style="rhombus;whiteSpace=wrap;html=1;" vertex="1" parent="1">
          <mxGeometry x="710" y="360" width="150" height="60" as="geometry" />
        </mxCell>
        <mxCell id="lhJMH0FhBBp582m9ibpw-53" style="edgeStyle=orthogonalEdgeStyle;rounded=0;orthogonalLoop=1;jettySize=auto;html=1;" edge="1" parent="1" source="lhJMH0FhBBp582m9ibpw-52" target="lhJMH0FhBBp582m9ibpw-46">
          <mxGeometry relative="1" as="geometry">
            <Array as="points">
              <mxPoint x="890" y="390" />
              <mxPoint x="890" y="290" />
              <mxPoint x="889" y="290" />
            </Array>
          </mxGeometry>
        </mxCell>
        <mxCell id="lhJMH0FhBBp582m9ibpw-54" value="是，确认收货" style="edgeLabel;html=1;align=center;verticalAlign=middle;resizable=0;points=[];" vertex="1" connectable="0" parent="lhJMH0FhBBp582m9ibpw-53">
          <mxGeometry x="0.2541" y="-2" relative="1" as="geometry">
            <mxPoint x="2" y="2" as="offset" />
          </mxGeometry>
        </mxCell>
        <mxCell id="lhJMH0FhBBp582m9ibpw-65" style="edgeStyle=orthogonalEdgeStyle;rounded=0;orthogonalLoop=1;jettySize=auto;html=1;entryX=1;entryY=0.5;entryDx=0;entryDy=0;" edge="1" parent="1" source="lhJMH0FhBBp582m9ibpw-64" target="lhJMH0FhBBp582m9ibpw-31">
          <mxGeometry relative="1" as="geometry">
            <Array as="points">
              <mxPoint x="660" y="375" />
            </Array>
          </mxGeometry>
        </mxCell>
        <mxCell id="lhJMH0FhBBp582m9ibpw-66" value="是" style="edgeLabel;html=1;align=center;verticalAlign=middle;resizable=0;points=[];" vertex="1" connectable="0" parent="lhJMH0FhBBp582m9ibpw-65">
          <mxGeometry x="0.1243" y="-2" relative="1" as="geometry">
            <mxPoint x="-2" as="offset" />
          </mxGeometry>
        </mxCell>
        <mxCell id="lhJMH0FhBBp582m9ibpw-69" style="edgeStyle=orthogonalEdgeStyle;rounded=0;orthogonalLoop=1;jettySize=auto;html=1;entryX=0.5;entryY=0;entryDx=0;entryDy=0;" edge="1" parent="1">
          <mxGeometry relative="1" as="geometry">
            <mxPoint x="596" y="397.72727272727275" as="sourcePoint" />
            <mxPoint x="211" y="490" as="targetPoint" />
            <Array as="points">
              <mxPoint x="596" y="490" />
            </Array>
          </mxGeometry>
        </mxCell>
        <mxCell id="lhJMH0FhBBp582m9ibpw-70" value="否" style="edgeLabel;html=1;align=center;verticalAlign=middle;resizable=0;points=[];" vertex="1" connectable="0" parent="lhJMH0FhBBp582m9ibpw-69">
          <mxGeometry x="-0.8117" y="3" relative="1" as="geometry">
            <mxPoint x="907" y="517" as="offset" />
          </mxGeometry>
        </mxCell>
        <mxCell id="lhJMH0FhBBp582m9ibpw-71" value="否" style="edgeLabel;html=1;align=center;verticalAlign=middle;resizable=0;points=[];" vertex="1" connectable="0" parent="lhJMH0FhBBp582m9ibpw-69">
          <mxGeometry x="-0.7872" y="-2" relative="1" as="geometry">
            <mxPoint x="1" as="offset" />
          </mxGeometry>
        </mxCell>
        <mxCell id="lhJMH0FhBBp582m9ibpw-64" value="两天内是否发货" style="rhombus;whiteSpace=wrap;html=1;" vertex="1" parent="1">
          <mxGeometry x="540" y="350" width="110" height="50" as="geometry" />
        </mxCell>
      </root>
    </mxGraphModel>
  </diagram>
</mxfile>
